<?xml version="1.0" standalone="no"?>
<!DOCTYPE svg PUBLIC "-//W3C//DTD SVG 20010904//EN"
 "http://www.w3.org/TR/2001/REC-SVG-20010904/DTD/svg10.dtd">
<svg version="1.0" xmlns="http://www.w3.org/2000/svg"
 width="300.000000pt" height="300.000000pt" viewBox="0 0 300.000000 300.000000"
 preserveAspectRatio="xMidYMid meet">
<metadata>
Created by potrace 1.11, written by Peter Selinger 2001-2013
</metadata>
<g transform="translate(0.000000,300.000000) scale(0.100000,-0.100000)"
fill="#000000" stroke="none">
<path d="M1345 2993 c-28 -4 -151 -26 -204 -37 -182 -40 -471 -188 -615 -316
-164 -147 -283 -300 -370 -478 -58 -121 -62 -130 -101 -268 -40 -143 -53 -252
-50 -424 3 -157 17 -256 55 -385 12 -38 23 -77 25 -85 11 -48 79 -188 137
-283 231 -378 596 -621 1058 -703 60 -10 342 -13 405 -3 33 5 74 11 90 13 124
19 348 102 471 174 378 221 640 587 725 1011 26 132 33 374 13 506 -59 397
-274 756 -594 990 -259 191 -541 285 -860 289 -85 1 -168 1 -185 -1z m484
-739 l333 -335 -23 -25 c-12 -13 -25 -24 -29 -24 -3 0 -31 22 -61 50 l-54 49
-3 -274 -2 -275 -193 0 -192 0 0 146 c0 87 -4 148 -10 153 -8 6 -192 8 -215 2
-3 0 -5 -68 -5 -151 l0 -150 -192 0 -193 0 0 279 0 279 -48 -49 -48 -49 -27
28 -27 28 322 327 c177 180 324 327 328 327 3 0 156 -151 339 -336z m457
-1031 c0 -18 -5 -34 -10 -36 -6 -2 -360 -3 -786 -3 l-775 1 1 28 c1 15 2 30 3
35 0 4 353 7 784 7 l782 0 1 -32z m-1126 -340 c-1 -139 -10 -179 -45 -205 -47
-35 -142 -30 -178 10 -15 17 -15 20 4 44 l21 26 32 -19 c26 -15 35 -16 56 -6
28 14 28 13 29 170 l1 107 40 0 41 0 -1 -127z m218 105 c5 -13 22 -54 36 -93
14 -38 30 -83 36 -100 l11 -30 24 60 c13 33 33 88 45 123 l23 62 43 0 42 0
-71 -179 -72 -178 -34 3 c-18 2 -35 5 -36 6 -2 2 -30 73 -64 158 -34 85 -66
163 -71 173 -9 15 -5 17 33 17 35 0 46 -4 55 -22z m541 -78 c40 -55 76 -100
80 -100 4 0 7 45 6 100 l-1 100 38 0 c23 0 38 -5 39 -12 5 -73 3 -326 -3 -334
-4 -6 -21 -9 -36 -6 -23 3 -45 25 -107 108 -44 57 -82 104 -85 104 -3 0 -5
-45 -5 -101 0 -55 -2 -102 -6 -105 -4 -2 -21 -6 -38 -8 l-31 -3 0 178 0 179
38 0 c35 -1 40 -5 111 -100z"/>
<path d="M1276 2263 l-206 -208 0 -65 c-1 -63 -1 -374 0 -455 l0 -40 113 0
112 0 1 148 c0 81 4 150 7 153 8 8 365 9 373 2 3 -4 6 -73 7 -155 l2 -148 113
0 112 -1 1 31 c0 16 0 142 1 279 l0 249 -209 209 c-114 114 -211 208 -214 208
-4 0 -100 -93 -213 -207z"/>
</g>
</svg>
